<svg xmlns="http://www.w3.org/2000/svg" viewBox="0 0 232.03 209.78"><defs><style>.cls-1{fill:#59328a;}.cls-2{fill:#fff;stroke:#fff;stroke-miterlimit:10;stroke-width:2px;}</style></defs><title>Fichier 3</title><g id="Calque_2" data-name="Calque 2"><g id="plume"><g id="Calque_1-2" data-name="Calque 1"><path class="cls-1" d="M231.65,58.92a125.91,125.91,0,0,1-21.35,61.47c-8.22,12.09-18.47,22.34-29.39,32-7.72,6.81-11.7,13-22.51,13.09,0,0-12.67,7.67-12.64,7.67,1.05,0,2.57-.88,3.57-1.23l-2-.9c-.27-.1-2.32,1.94-1.17,2.13a57.43,57.43,0,0,0,6.94.39l-7.22-.38c.32.15.53-.41.88-.48a.62.62,0,0,1,.33,0l1.28.36-.74.54c.35-.24,1.62,0,2.06,0,.81,0,.4-.51,0,.22s2.65.47,2.9.45c.84-.07,1.68-.17,2.52-.32a35.67,35.67,0,0,1,4.25-.62l.71,0,.72,0,.73,0,.72,0,.72,0,.73-.05.72,0,.72-.05.72-.05.72-.06.7-.05.71-.06.7-.06.69-.06.68-.07.67-.07.66-.07.66-.07.64-.07.62-.08.62-.08.6-.09.58-.08.57-.09.55-.1.53-.09.52-.1.49-.1.48-.1.45-.11.43-.11.41-.12.44-.14.22-.07.09,0s.08,0,.1,0l-.06.08-.21.27a1.69,1.69,0,0,0-.17.29,3.3,3.3,0,0,1-.26.45,1.56,1.56,0,0,1-.16.2,115.91,115.91,0,0,1-62.65,34.88,152.61,152.61,0,0,1-27.72,2.84,92,92,0,0,1-35.72-6.08C34,196,19.5,182.83,9.85,164.32A86.45,86.45,0,0,1,1,136.54c-.4-2.75-.52-5.53-.78-8.3C.2,127.63.09,127,0,126.42v-6.73c.16-1.65.34-3.29.48-4.94a84.14,84.14,0,0,1,11.63-36c12.27-20.55,30-34,53.17-40.08A78.36,78.36,0,0,1,85.1,36.08c9.2,0,18.41,0,27.62,0a76.49,76.49,0,0,0,32.53-7.13,77.9,77.9,0,0,0,24-17.36,2.2,2.2,0,0,1,1.61-.69c.87.15.65,1,.58,1.65a76.15,76.15,0,0,1-7.39,25.66c-1.29,2.59-2.82,5.06-4.18,7.62-.23.41-.39,1.18-.18,1.42a1.78,1.78,0,0,0,1.49.46c12-3.24,23.37-8,33.15-16A85.76,85.76,0,0,0,212.91,9.8C214.67,6.94,216.26,4,218,1.1A2.36,2.36,0,0,1,219.52,0c.45,0,1.11.6,1.38,1.1a90.44,90.44,0,0,1,10,31.34A127.41,127.41,0,0,1,231.65,58.92Z"/></g><path class="cls-2" d="M160.17,161.07c.64-3.32,1.26-6.63,1.89-9.95l6.11-32q1-5.05,1.93-10.09l1-5.42a2.09,2.09,0,0,0-.35-1.66q-1.32-1.9-2.62-3.83l-6.28-9.25c-2.45-3.6-4.91-7.19-7.33-10.8a2.6,2.6,0,0,0-1.82-1.23c-2.17-.38-4.34-.81-6.52-1.22l-9.89-1.9-10-1.91-11.55-2.2A8.25,8.25,0,0,0,105,75.6c-.14.5-.25,1-.35,1.54l-9.94-1.89L83.13,73A8.25,8.25,0,0,0,73.4,79a2.1,2.1,0,0,0-.06.24L77.4,80a4.12,4.12,0,0,1,4.82-2.91q10.82,2,21.64,4.13L118,83.91c.66.13.66.13.53.76l-3.33,17.41a2.17,2.17,0,0,0,1.77,2.7l8.89,1.69,8.76,1.67c.38.06.47.2.39.58-.43,2.21-.86,4.41-1.27,6.63-.27,1.35-.53,2.71-.79,4.06l-8.52,44.65c-.26,1.36-.51,2.73-.77,4.08l-.16.84a4.14,4.14,0,0,1-5,3.38l-22.2-4.23c-.24,1.37-.49,2.73-.82,4.07l11,2.07,11.28,2.16a7.62,7.62,0,0,0,3.36,0,7.94,7.94,0,0,0,6.25-6c.13-.5.24-1,.35-1.52l10.35,2c3.76.71,7.53,1.43,11.28,2.16a7.62,7.62,0,0,0,3.36,0,8,8,0,0,0,6.26-6C159.48,165.08,159.79,163.06,160.17,161.07ZM153.68,85a3.19,3.19,0,0,1,.12-.45l10.54,15.54-.45-.06-12.07-2.3c-.55-.11-.55-.12-.44-.66ZM132.3,103.44l-12.08-2.31c-.54-.1-.54-.11-.44-.65l2.31-12.08c0-.17.08-.33.11-.44l10.54,15.53C132.64,103.48,132.46,103.47,132.3,103.44Zm31,19-6.87,36c-.46,2.39-.9,4.78-1.37,7.18a4.15,4.15,0,0,1-5,3.38l-21.62-4.13.07-.39c.65-3.31,1.27-6.62,1.9-9.94L137,120.19c.27-1.35.53-2.71.79-4.07l1.73-9.08a2,2,0,0,0-.36-1.65l-2.61-3.84c-2.1-3.07-4.19-6.16-6.29-9.24-2.44-3.6-4.9-7.19-7.32-10.82a2.63,2.63,0,0,0-1.82-1.21c-2.17-.39-4.34-.81-6.52-1.23l-5.9-1.13.17-.9a4.13,4.13,0,0,1,4.93-3.33l35.77,6.83c.65.12.66.12.54.76q-1.68,8.7-3.34,17.41a2.15,2.15,0,0,0,1.78,2.69l8.88,1.7,8.76,1.66c.38.07.46.2.39.58C165.5,111,164.42,116.7,163.33,122.4Z"/><path class="cls-2" d="M149.87,137.73a2.05,2.05,0,0,1-2.33,1.31c-.85-.13-1.69-.3-2.53-.46l-11.09-2.12.78-4.11q6.65,1.26,13.28,2.54a3.17,3.17,0,0,1,1.23.5A2,2,0,0,1,149.87,137.73Z"/><path class="cls-2" d="M146.46,154.52a2,2,0,0,1-2,.74q-2.87-.51-5.71-1.07l-7.91-1.51.78-4.08,8.71,1.67,4.75.91a2.07,2.07,0,0,1,1.4,3.34Z"/><path class="cls-2" d="M150.88,122.8c-.64-.07-1.28-.2-1.91-.32L137,120.19c.27-1.35.53-2.71.79-4.07,4.49.86,9,1.73,13.46,2.57a2.06,2.06,0,0,1,1.73,1.43A2,2,0,0,1,150.88,122.8Z"/><path class="cls-2" d="M118.27,141.13a2.06,2.06,0,0,1-2.33,1.31c-.84-.13-1.68-.3-2.52-.47l-11.67-2.22c.26-1.38.51-2.74.77-4.12q6.95,1.32,13.86,2.66a3.36,3.36,0,0,1,1.24.49A2,2,0,0,1,118.27,141.13Z"/><path class="cls-2" d="M114.87,157.92a2,2,0,0,1-2,.74c-1.91-.34-3.81-.72-5.71-1.08L98.65,156c.26-1.35.51-2.72.77-4.08l9.29,1.79,4.76.9a2.08,2.08,0,0,1,1.4,3.35Z"/><path class="cls-2" d="M119.29,126.19c-.65-.06-1.28-.2-1.91-.32l-12.52-2.4.77-4.06,14.05,2.68a2.06,2.06,0,0,1,1.73,1.42A2,2,0,0,1,119.29,126.19Z"/><path class="cls-2" d="M96.33,168.13c.11-.57.21-1.13.32-1.7l.63-3.33c.27-1.36.52-2.71.78-4.07.16-.85.32-1.69.49-2.54l.1-.53c.26-1.35.51-2.72.77-4.08l.28-1.44c.63-3.31,1.27-6.62,1.9-9.93l.15-.76c.26-1.38.51-2.74.77-4.12l.23-1.17q.94-5,1.9-9.94l3-15.51a2.07,2.07,0,0,0-.35-1.65l-2.62-3.83-.62-.92-3.31-4.85-2.36-3.47c-2.44-3.6-4.9-7.2-7.32-10.82a2.61,2.61,0,0,0-1.81-1.22c-2.18-.39-4.35-.81-6.53-1.23L77.4,80l-4.6-.88-10-1.89c-3.85-.74-7.7-1.47-11.55-2.22a7.92,7.92,0,0,0-3.46,0,8.05,8.05,0,0,0-6.28,6c-.27,1-.43,2-.62,3Q39.13,93,37.41,102L34,120.11q-1.05,5.52-2.11,11l-1.92,10q-1,5.1-1.94,10.19c-.51,2.64-1,5.29-1.47,7.94a7.31,7.31,0,0,0,.95,4.9,8.2,8.2,0,0,0,5.94,4.2c4.66.86,9.3,1.77,14,2.66,5.38,1,10.78,2.07,16.16,3.08l11,2.1,11.28,2.15a7.77,7.77,0,0,0,3.36,0,8,8,0,0,0,6.26-6,1.6,1.6,0,0,1,.05-.21C95.84,170.86,96.09,169.5,96.33,168.13ZM90.16,90.37a4.15,4.15,0,0,1,.12-.45c3.09,4.59,6.2,9.16,9.31,13.75.41.59.81,1.2,1.22,1.8-.1,0-.27,0-.44,0L88.3,103.11c-.55-.1-.55-.11-.44-.67Zm11.4,28.26-.77,4.06c-.33,1.69-.66,3.39-1,5.08l-7.55,39.58c-.23,1.21-.46,2.41-.68,3.61a3.09,3.09,0,0,1-.12.46,4.13,4.13,0,0,1-4.86,2.92l-25.69-4.91-26.82-5.12a4,4,0,0,1-3.29-2.85,3.93,3.93,0,0,1-.14-2q2.08-10.8,4.13-21.6l10.12-53c.16-.81.3-1.62.46-2.43a4.14,4.14,0,0,1,4.93-3.33L72,83.21l4.56.88,9.47,1.79c.66.13.66.13.54.77q-1.68,8.7-3.34,17.41a2.18,2.18,0,0,0,1.77,2.7l8.89,1.68,4.58.88,4.08.77h.1c.38.08.47.22.4.59C102.57,113.33,102.07,116,101.56,118.63Z"/><path class="cls-2" d="M86.34,143.09A2,2,0,0,1,84,144.41c-.84-.13-1.68-.3-2.52-.46l-15.79-3v0l-4-.77c-4.61-.88-9.2-1.74-13.81-2.64a3.51,3.51,0,0,1-1.28-.51,2,2,0,0,1-.66-2.34,2,2,0,0,1,2.33-1.31c.68.1,1.37.24,2.05.37l12.15,2.33,5.63,1.07,16.37,3.13a3.65,3.65,0,0,1,1.24.51A2,2,0,0,1,86.34,143.09Z"/><path class="cls-2" d="M83,159.88a2,2,0,0,1-2,.76c-1.92-.35-3.82-.72-5.72-1.08l-12.55-2.4h0l-4-.77L44.53,153.7a2.07,2.07,0,0,1,.39-4.12L47,150l9.85,1.89,2.5.48,4.07.76,3.46.67,9.9,1.89,4.75.91a2,2,0,0,1,1.67,1.24A2,2,0,0,1,83,159.88Z"/><path class="cls-2" d="M87.36,128.17c-.64-.07-1.28-.2-1.91-.33l-14-2.67-6.69-1.28-7.72-1.46c-2.1-.4-4.19-.82-6.28-1.21A2.07,2.07,0,0,1,49.07,120a2.07,2.07,0,0,1,2.3-2.85l6.13,1.16,12.13,2.32h0l18.13,3.46a2.06,2.06,0,0,1-.39,4.1Z"/></g></g></svg>